HIERARCHY
ROOT Hips
{
    OFFSET 0.000000 0.000000 0.000000
    CHANNELS 6 Xposition Yposition Zposition Zrotation Xrotation Yrotation
    JOINT Spine
    {
        OFFSET -0.000000 0.081015 0.000000
        CHANNELS 3 Zrotation Xrotation Yrotation
        JOINT Spine1
        {
            OFFSET -0.000000 0.240812 0.000000
            CHANNELS 3 Zrotation Xrotation Yrotation
            JOINT Neck
            {
                OFFSET -0.000000 0.239823 0.021802
                CHANNELS 3 Zrotation Xrotation Yrotation
                JOINT Head
                {
                    OFFSET -0.000000 0.148909 -0.021273
                    CHANNELS 3 Zrotation Xrotation Yrotation
                    End Site
                    {
                        OFFSET -0.000000 0.197598 0.000000
                    }
                }
            }
            JOINT LeftShoulder
            {
                OFFSET 0.039829 0.224972 -0.001181
                CHANNELS 3 Zrotation Xrotation Yrotation
                JOINT LeftArm
                {
                    OFFSET 0.107364 0.000000 0.000000
                    CHANNELS 3 Zrotation Xrotation Yrotation
                    JOINT LeftForeArm
                    {
                        OFFSET 0.283104 0.000000 0.000000
                        CHANNELS 3 Zrotation Xrotation Yrotation
                        JOINT LeftHand
                        {
                            OFFSET 0.324767 0.000000 0.000000
                            CHANNELS 3 Zrotation Xrotation Yrotation
                            End Site
                            {
                                OFFSET 0.148198 0.000000 0.000000
                            }
                        }
                    }
                }
            }
            JOINT RightShoulder
            {
                OFFSET -0.039119 0.224972 -0.001181
                CHANNELS 3 Zrotation Xrotation Yrotation
                JOINT RightArm
                {
                    OFFSET -0.107364 0.000000 0.000000
                    CHANNELS 3 Zrotation Xrotation Yrotation
                    JOINT RightForeArm
                    {
                        OFFSET -0.283104 0.000000 0.000000
                        CHANNELS 3 Zrotation Xrotation Yrotation
                        JOINT RightHand
                        {
                            OFFSET -0.324767 0.000000 0.000000
                            CHANNELS 3 Zrotation Xrotation Yrotation
                            End Site
                            {
                                OFFSET -0.148198 0.000000 0.000000
                            }
                        }
                    }
                }
            }
        }
    }
    JOINT LeftUpLeg
    {
        OFFSET 0.098799 0.000000 0.000000
        CHANNELS 3 Zrotation Xrotation Yrotation
        JOINT LeftLeg
        {
            OFFSET -0.000000 -0.332632 0.000000
            CHANNELS 3 Zrotation Xrotation Yrotation
            JOINT LeftFoot
            {
                OFFSET -0.000000 -0.498967 0.000000
                CHANNELS 3 Zrotation Xrotation Yrotation
                JOINT LeftToeBase
                {
                    OFFSET -0.000000 -0.064219 0.148198
                    CHANNELS 3 Zrotation Xrotation Yrotation
                    End Site
                    {
                        OFFSET -0.000000 0.000000 0.039520
                    }
                }
            }
        }
    }
    JOINT RightUpLeg
    {
        OFFSET -0.098799 0.000000 0.000000
        CHANNELS 3 Zrotation Xrotation Yrotation
        JOINT RightLeg
        {
            OFFSET -0.000000 -0.332632 0.000000
            CHANNELS 3 Zrotation Xrotation Yrotation
            JOINT RightFoot
            {
                OFFSET -0.000000 -0.498967 0.000000
                CHANNELS 3 Zrotation Xrotation Yrotation
                JOINT RightToeBase
                {
                    OFFSET -0.000000 -0.064219 0.148198
                    CHANNELS 3 Zrotation Xrotation Yrotation
                    End Site
                    {
                        OFFSET -0.000000 0.000000 0.039520
                    }
                }
            }
        }
    }
}
MOTION
Frames:    10
Frame Time:    0.010000
0.038056    0.864742    0.107558    -8.823318    1.209906    -85.035980    -6.696167    8.320021    -18.099854    3.947990    12.367149    -6.615112    -17.788540    37.235668    32.856644    -44.260441    -11.742905    19.922812    0.571089    11.273983    -23.212158    -10.603927    18.615513    -69.087669    40.017475    -16.232733    -60.153687    48.711464    8.694111    1.435687    13.637030    22.314066    1.941325    42.359722    29.298649    25.664038    -109.238983    -50.332397    -21.593876    -37.566257    -62.810329    -24.953653    27.104340    -1.412620    19.530104    -16.850395    27.316196    22.075344    0.383405    -5.556885    16.954292    0.000000    0.000000    0.000000    -12.009766    -10.286723    -5.172166    3.298295    26.929417    -0.607231    20.131414    -5.476095    9.116596    0.000000    0.000000    0.000000    
0.038214    0.864997    0.107836    -8.683588    1.148270    -84.800911    -6.750753    8.393095    -17.935358    4.016699    12.086548    -6.560684    -17.696615    37.513317    32.707851    -44.330326    -11.435823    19.826950    1.429178    9.909345    -23.283253    -11.043499    17.724838    -69.211777    39.883816    -16.469376    -61.606491    49.630409    8.685397    0.511683    13.549740    21.931410    1.998538    42.458618    28.706331    25.106756    -109.898018    -49.610611    -21.877058    -37.062145    -62.822544    -24.490650    26.933180    -1.618505    19.422403    -16.741438    27.207346    22.079691    0.390069    -5.518606    16.901665    0.000000    0.000000    0.000000    -12.182429    -10.322753    -5.191352    3.522892    26.801056    -0.925789    19.558168    -5.210921    9.158404    0.000000    0.000000    0.000000    
0.038327    0.865241    0.108149    -8.543378    1.075356    -84.573341    -6.894444    8.433372    -17.721817    4.168824    11.895053    -6.502611    -17.638285    37.903206    32.518177    -44.506481    -11.358408    19.538668    2.295713    8.479426    -23.462135    -11.510796    16.888741    -69.229401    39.863739    -16.776596    -63.020538    50.603664    8.732889    -0.245360    13.539562    21.497292    1.873951    42.373604    27.896276    24.597900    -110.026207    -49.205532    -21.575708    -37.284042    -62.376591    -24.184414    26.758205    -1.808429    19.341675    -16.644348    27.100386    21.937317    0.470156    -5.447807    16.951260    0.000000    0.000000    0.000000    -12.387170    -10.343063    -5.234807    3.741417    26.671814    -1.131295    19.166128    -4.954051    9.171989    0.000000    0.000000    0.000000    
0.038310    0.865459    0.108497    -8.373853    0.961246    -84.316505    -7.067505    8.304138    -17.714180    4.227495    12.022314    -6.512070    -17.693331    37.766960    32.430042    -44.552956    -11.231692    19.495583    3.242354    6.939340    -23.180721    -11.712681    16.183434    -69.474693    40.184021    -17.329880    -64.223839    51.326801    8.662205    -1.009922    13.289232    21.014824    2.015270    42.382782    27.722588    24.144789    -110.874901    -48.533321    -21.822521    -38.386986    -62.035686    -25.231014    26.530056    -2.030282    19.232853    -16.540615    26.987520    21.817736    0.503264    -5.391269    17.006161    0.000000    0.000000    0.000000    -12.661471    -10.337630    -5.326308    3.982219    26.534225    -1.232881    18.932716    -4.900238    9.085706    0.000000    0.000000    0.000000    
0.038294    0.865834    0.108781    -8.287457    0.959162    -84.139282    -7.151654    8.585576    -17.391785    4.457972    11.351446    -6.410412    -17.757542    38.507408    32.321323    -44.802559    -11.261512    19.132824    3.957345    5.857326    -23.507402    -11.406513    15.746634    -69.503494    40.890739    -18.186661    -64.875916    52.058205    8.426199    -1.467967    13.319949    20.717773    1.789225    42.063992    28.228325    23.651724    -112.242340    -47.416428    -22.928221    -39.362984    -62.349682    -25.737125    26.445372    -2.128496    19.150204    -16.476522    26.857822    21.739191    0.493785    -5.356874    17.057962    0.000000    0.000000    0.000000    -12.768719    -10.236004    -5.253521    4.214489    26.314693    -1.396178    18.886818    -4.815392    8.893985    0.000000    0.000000    0.000000    
0.038135    0.866186    0.109014    -8.152962    0.945640    -83.938339    -7.298570    8.649261    -17.233318    4.646289    11.019749    -6.367529    -17.980154    38.860535    32.299862    -44.829868    -11.290737    18.962337    4.624560    4.508006    -23.530874    -11.288634    15.408905    -69.522545    41.613632    -18.930485    -65.588737    52.490540    8.444931    -1.775364    13.155200    20.274628    1.885842    42.169983    27.609730    22.885578    -112.345398    -47.090134    -22.466162    -39.055626    -61.909760    -25.274069    26.359713    -2.264048    19.092419    -16.419188    26.727789    21.662336    0.537470    -5.286052    17.044069    0.000000    0.000000    0.000000    -12.889453    -10.108012    -5.228757    4.439962    26.024229    -1.576754    18.856636    -4.822249    8.696683    0.000000    0.000000    0.000000    
0.037924    0.866572    0.109257    -7.997724    0.961640    -83.749588    -7.441520    8.691864    -17.101055    4.840514    10.666850    -6.331302    -18.214582    39.175007    32.324303    -44.864834    -11.362630    18.826141    5.260833    3.302828    -23.486034    -11.167070    15.005789    -69.562889    42.303474    -19.636297    -66.268158    52.906685    8.505223    -2.025874    12.943199    19.844332    2.011793    42.213238    27.098959    22.128824    -112.414963    -46.837387    -22.023937    -39.092400    -61.440872    -25.024147    26.305389    -2.389111    19.072233    -16.368235    26.570925    21.599167    0.566666    -5.218876    17.006899    0.000000    0.000000    0.000000    -12.956958    -9.972904    -5.207354    4.620208    25.685150    -1.786333    18.875395    -4.811589    8.549129    0.000000    0.000000    0.000000    
0.037646    0.867004    0.109513    -7.851250    1.004786    -83.557747    -7.572439    8.758045    -16.981260    5.043397    10.247508    -6.296366    -18.517847    39.481106    32.410069    -44.795887    -11.392747    18.782681    5.788490    2.182852    -23.394814    -11.070907    14.649117    -69.636108    42.842403    -20.308001    -66.957664    54.061607    8.399676    -2.445959    12.743725    19.485931    2.164641    42.254669    26.263083    21.348972    -112.104790    -46.892578    -21.187618    -39.106426    -60.768394    -24.641739    26.275969    -2.489349    19.044455    -16.321291    26.390261    21.511366    0.602386    -5.157624    16.978176    0.000000    0.000000    0.000000    -12.958070    -9.809618    -5.253949    4.696464    25.310493    -1.950603    18.876543    -4.734920    8.501576    0.000000    0.000000    0.000000    
0.037257    0.867402    0.109869    -7.737772    1.070656    -83.364868    -7.731201    8.801174    -16.913034    5.292060    9.900574    -6.284857    -18.922684    39.688286    32.620827    -44.752979    -11.369255    18.883654    6.249669    1.097500    -23.191710    -11.090015    14.324592    -69.709564    43.380989    -20.828667    -67.592026    54.335541    8.445956    -2.880175    12.410503    19.289175    2.359209    42.155712    25.588303    20.823135    -111.848724    -46.906509    -20.500160    -39.939713    -59.976421    -24.942915    26.254784    -2.534898    19.094547    -16.223366    26.205643    21.386925    0.675491    -5.141875    16.872770    0.000000    0.000000    0.000000    -12.879446    -9.611929    -5.458964    4.595570    24.943903    -1.964920    18.785734    -4.621661    8.529566    0.000000    0.000000    0.000000    
0.036939    0.867887    0.110232    -7.595216    1.157882    -83.173538    -7.828056    8.893453    -16.868544    5.536032    9.350679    -6.268988    -19.574703    40.027718    32.847237    -44.513264    -11.501841    18.893404    6.575929    0.262343    -22.999454    -11.066865    13.996813    -69.733826    43.979256    -21.312536    -68.209290    54.482643    8.763504    -2.972731    12.060740    19.025675    2.651952    42.283104    24.588055    19.997068    -111.064865    -47.101837    -19.139221    -39.368000    -58.951321    -24.365780    26.236435    -2.592788    19.147713    -16.118847    25.982639    21.248442    0.749729    -5.115591    16.796980    0.000000    0.000000    0.000000    -12.709049    -9.467698    -5.740311    4.328327    24.594591    -1.884236    18.822285    -4.460837    8.564697    0.000000    0.000000    0.000000    
